<svg xmlns="http://www.w3.org/2000/svg" width="814" height="500" viewBox="0 0 814 500">
  <g id="Grupo_81604" data-name="Grupo 81604" transform="translate(-276 -5712)">
    <g id="Grupo_80983" data-name="Grupo 80983" transform="translate(-1 3626)">
      <rect id="Rectángulo_5930" data-name="Rectángulo 5930" width="814" height="500" transform="translate(277 2086)" fill="#f6f6f6"/>
    </g>
    <g id="Grupo_81599" data-name="Grupo 81599" transform="translate(345.545 5718.373)">
      <path id="Trazado_139682" data-name="Trazado 139682" d="M428.495,24.627H246.505a33.9,33.9,0,1,0,0,67.807h181.99a33.9,33.9,0,1,0,0-67.807Z" fill="#b52426"/>
      <g id="Grupo_80946-2" data-name="Grupo 80946-2">
        <g id="Motivación_reconocimiento_respeto_orgullo_emoción._" data-name="Motivación reconocimiento respeto orgullo emoción. " style="isolation: isolate">
          <text id="Motivación_reconocimiento_" data-name="Motivación, reconocimiento, " transform="translate(249.07 55.417)" fill="#fff" font-size="14" font-family="Roboto-Regular, Roboto" style="isolation: isolate"><tspan x="0" y="0">Motivación, reconocimiento, </tspan></text>
          <text id="respeto_orgullo_emoción." data-name="respeto, orgullo, emoción." transform="translate(254.569 71.017)" fill="#fff" font-size="14" font-family="Roboto-Regular, Roboto" style="isolation: isolate"><tspan x="0" y="0">respeto, orgullo, emoción.</tspan></text>
        </g>
      </g>
      <path id="Trazado_139683" data-name="Trazado 139683" d="M209.39,442.124H8.483A34.026,34.026,0,0,1-25.545,408.1h0A34.028,34.028,0,0,1,8.483,374.07H209.39Z" fill="#97181a"/>
      <g id="Grupo_81599-2" data-name="Grupo 81599">
        <path id="Trazado_139683-2" data-name="Trazado 139683" d="M466.043,374.07H666.95A34.027,34.027,0,0,1,700.978,408.1h0a34.028,34.028,0,0,1-34.028,34.028H466.043Z" fill="#d64626"/>
        <g id="Grupo_80948" data-name="Grupo 80948">
          <g id="Mejores_resultados_buen_clima_organizacional_productividad_manejo_de_conflictos._" data-name="Mejores resultados buen clima organizacional productividad manejo de conflictos. " style="isolation: isolate">
            <text id="Mejores_resultados_buen_clima" data-name="Mejores resultados, buen clima" transform="translate(486.542 397.189)" fill="#fff" font-size="14" font-family="Roboto-Regular, Roboto" style="isolation: isolate"><tspan x="0" y="0">Mejores resultados, buen clima</tspan></text>
            <text id="organizacional_productividad_" data-name="organizacional, productividad," transform="translate(486.542 411.457)" fill="#fff" font-size="14" font-family="Roboto-Regular, Roboto" style="isolation: isolate"><tspan x="0" y="0">organizacional, productividad,</tspan></text>
            <text id="manejo_de_conflictos." data-name="manejo de conflictos." transform="translate(486.542 427.189)" fill="#fff" font-size="14" font-family="Roboto-Regular, Roboto" style="isolation: isolate"><tspan x="0" y="0">manejo de conflictos.</tspan></text>
          </g>
        </g>
      </g>
      <path id="Trazado_139685" data-name="Trazado 139685" d="M337.718,144.673v-5.592a148.122,148.122,0,0,0-87.462,28.441l3.286,4.525A142.541,142.541,0,0,1,337.718,144.673Z" fill="#97181a"/>
      <path id="Trazado_139686" data-name="Trazado 139686" d="M421.894,172.051l3.286-4.525a148.13,148.13,0,0,0-87.465-28.445v5.592A142.556,142.556,0,0,1,421.894,172.051Z" fill="#97181a"/>
      <path id="Trazado_139687" data-name="Trazado 139687" d="M253.541,403.765a143.481,143.481,0,0,1-52.052-71.6l-5.318,1.728a148.941,148.941,0,0,0,141.545,102.84v-5.6A142.541,142.541,0,0,1,253.541,403.765Z" fill="#d64626"/>
      <path id="Trazado_139688" data-name="Trazado 139688" d="M250.255,167.522A148.812,148.812,0,0,0,196.171,333.9l5.318-1.728a143.159,143.159,0,0,1,52.052-160.121Z" fill="#97181a"/>
      <path id="Trazado_139689" data-name="Trazado 139689" d="M473.944,332.169a143.339,143.339,0,0,1-136.229,98.964v5.6A148.945,148.945,0,0,0,479.265,333.9Z" fill="#b52426"/>
      <path id="Trazado_139690" data-name="Trazado 139690" d="M479.265,241.915a149.108,149.108,0,0,0-54.086-74.393l-3.286,4.525a143.221,143.221,0,0,1,52.051,160.122l5.319,1.728a148.937,148.937,0,0,0,0-91.982Z" fill="#97181a"/>
      <g id="Grupo_80963" data-name="Grupo 80963">
        <path id="Trazado_139702" data-name="Trazado 139702" d="M194.518,286.253h-5.594c-.006.553-.033,1.1-.033,1.652A148.653,148.653,0,0,0,196.17,333.9l5.317-1.728a143.077,143.077,0,0,1-7-44.264C194.486,287.352,194.512,286.806,194.518,286.253Z" fill="#d64626"/>
      </g>
      <g id="Grupo_81600" data-name="Grupo 81600">
        <circle id="Elipse_4485" data-name="Elipse 4485" cx="91.781" cy="91.781" r="91.781" transform="translate(245.936 196.079)" fill="#fff"/>
        <path id="Trazado_139691" data-name="Trazado 139691" d="M292.265,225.347a77.325,77.325,0,0,0-28.1,86.458l4.255-1.382a72.829,72.829,0,0,1,26.48-81.456Z" fill="#97181a"/>
        <path id="Trazado_139692" data-name="Trazado 139692" d="M294.9,346.845a72.99,72.99,0,0,1-26.48-36.422l-4.255,1.382a77.4,77.4,0,0,0,73.555,53.439V360.77A72.509,72.509,0,0,1,294.9,346.845Z" fill="#d64626"/>
        <path id="Trazado_139693" data-name="Trazado 139693" d="M337.718,210.568a76.982,76.982,0,0,0-45.456,14.779l2.631,3.62a72.806,72.806,0,0,1,85.643,0l2.63-3.62A76.969,76.969,0,0,0,337.718,210.568Z" fill="#97181a"/>
        <path id="Trazado_139694" data-name="Trazado 139694" d="M407.015,310.423a72.917,72.917,0,0,1-69.3,50.347v4.474a77.4,77.4,0,0,0,73.558-53.436Z" fill="#b52426"/>
        <path id="Trazado_139695" data-name="Trazado 139695" d="M411.275,264.005a77.493,77.493,0,0,0-28.107-38.658l-2.629,3.62a72.852,72.852,0,0,1,26.478,81.456l4.258,1.382A77.418,77.418,0,0,0,411.275,264.005Z" fill="#97181a"/>
        <g id="Grupo_80962" data-name="Grupo 80962">
          <path id="Trazado_139701" data-name="Trazado 139701" d="M264.885,286.253h-4.474c-.012.551-.033,1.1-.033,1.652a77.275,77.275,0,0,0,3.782,23.9l4.255-1.382a72.8,72.8,0,0,1-3.563-22.518C264.85,287.352,264.874,286.8,264.885,286.253Z" fill="#d64626"/>
        </g>
        <g id="Grupo_80964" data-name="Grupo 80964">
          <path id="Trazado_139703" data-name="Trazado 139703" d="M410.539,285.776c.021.708.043,1.417.043,2.129a72.715,72.715,0,0,1-3.565,22.518l4.258,1.382a77.243,77.243,0,0,0,3.781-23.9c0-.713-.021-1.422-.043-2.129Z" fill="#b52426"/>
        </g>
      </g>
      <g id="Grupo_80965" data-name="Grupo 80965">
        <path id="Trazado_139704" data-name="Trazado 139704" d="M480.916,286.253c.006.553.034,1.1.034,1.652a143.108,143.108,0,0,1-7,44.264l5.318,1.728a148.588,148.588,0,0,0,7.279-45.992c0-.553-.029-1.1-.035-1.652Z" fill="#b52426"/>
      </g>
      <g id="Grupo_80967" data-name="Grupo 80967">
        <g id="Mejor_trato_menos_quejas_mayor_seguridad_y_satisfacción._" data-name="Mejor trato menos quejas mayor seguridad y satisfacción. " style="isolation: isolate">
          <text id="Mejor_trato_menos_quejas_" data-name="Mejor trato, menos quejas, " transform="translate(18.487 397.19)" fill="#fff" font-size="14" font-family="Roboto-Regular, Roboto" style="isolation: isolate"><tspan x="0" y="0">Mejor trato, menos quejas, </tspan></text>
          <text id="mayor_seguridad_y_" data-name="mayor seguridad y " transform="translate(18.487 414.369)" fill="#fff" font-size="14" font-family="Roboto-Regular, Roboto" style="isolation: isolate"><tspan x="0" y="0">mayor seguridad y </tspan></text>
          <text id="satisfacción." transform="translate(18.487 430.172)" fill="#fff" font-size="14" font-family="Roboto-Regular, Roboto" style="isolation: isolate"><tspan x="0" y="0">satisfacción.</tspan></text>
        </g>
      </g>
      <g id="Grupo_80950" data-name="Grupo 80950">
        <g id="Grupo_80949" data-name="Grupo 80949">
          <g id="BENEFICIOS_DE_SATISFECER_CLIENTES_INTERNOS" data-name="BENEFICIOS DE SATISFECER CLIENTES INTERNOS" style="isolation: isolate">
            <text id="BENEFICIOS_" data-name="BENEFICIOS " transform="translate(299.913 268.244)" fill="#717272" font-size="13" font-family="Roboto-Black, Roboto" font-weight="800" style="isolation: isolate"><tspan x="0" y="0">BENEFICIOS </tspan></text>
            <text id="DE_SATISFECER_" data-name="DE SATISFECER " transform="translate(289.207 284.244)" fill="#717272" font-size="13" font-family="Roboto-Black, Roboto" font-weight="800" style="isolation: isolate"><tspan x="0" y="0">DE SATISFECER </tspan></text>
            <text id="CLIENTES_" data-name="CLIENTES " transform="translate(306.489 300.244)" fill="#717272" font-size="13" font-family="Roboto-Black, Roboto" font-weight="800" style="isolation: isolate"><tspan x="0" y="0">CLIENTES </tspan></text>
            <text id="INTERNOS" transform="translate(306.241 316.244)" fill="#717272" font-size="13" font-family="Roboto-Black, Roboto" font-weight="800" style="isolation: isolate"><tspan x="0" y="0">INTERNOS</tspan></text>
          </g>
        </g>
      </g>
      <g id="Grupo_81601" data-name="Grupo 81601">
        <g id="Grupo_80959" data-name="Grupo 80959">
          <g id="Grupo_80958" data-name="Grupo 80958">
            <g id="Grupo_80957" data-name="Grupo 80957">
              <path id="Trazado_139699" data-name="Trazado 139699" d="M217.489,452.132h0a54.835,54.835,0,0,0,76.552-12.386v0l17.021-23.6a15.569,15.569,0,0,0,.856-16.9l-25.028-43.322-49.007-10.077a15.571,15.571,0,0,0-15.766,6.142L205.1,375.579a54.834,54.834,0,0,0,12.39,76.551Z" fill="#d64626"/>
            </g>
          </g>
          <path id="Trazado_139700" data-name="Trazado 139700" d="M286.372,342.568a7.493,7.493,0,1,0,10.467-1.654l0,0a7.491,7.491,0,0,0-10.463,1.655Z" fill="#d64626"/>
        </g>
        <g id="Grupo_80960" data-name="Grupo 80960">
          <g id="Beneficios_para_clientes_externos_" data-name="Beneficios para clientes externos " style="isolation: isolate">
            <text id="Beneficios_2" data-name="Beneficios " transform="translate(217.833 395.078)" fill="#fff" font-size="13" font-family="Roboto-Black, Roboto" font-weight="800" style="isolation: isolate"><tspan x="0" y="0">Beneficios </tspan></text>
            <text id="para_clientes_" data-name="para clientes " transform="translate(209.473 410.078)" fill="#fff" font-size="13" font-family="Roboto-Black, Roboto" font-weight="800" style="isolation: isolate"><tspan x="0" y="0">para clientes </tspan></text>
            <text id="externos" transform="translate(224.19 425.078)" fill="#fff" font-size="13" font-family="Roboto-Black, Roboto" font-weight="800" style="isolation: isolate"><tspan x="0" y="0">externos</tspan></text>
          </g>
        </g>
      </g>
      <g id="Grupo_81602" data-name="Grupo 81602">
        <g id="Grupo_80956" data-name="Grupo 80956">
          <g id="Grupo_80955" data-name="Grupo 80955">
            <g id="Grupo_80954" data-name="Grupo 80954">
              <path id="Trazado_139697" data-name="Trazado 139697" d="M456.962,451.9h0a54.835,54.835,0,0,0,11.872-76.635v0l-17.178-23.475a15.571,15.571,0,0,0-15.807-6.036l-48.937,10.414-24.734,43.493a15.573,15.573,0,0,0,.971,16.892l17.178,23.478A54.836,54.836,0,0,0,456.962,451.9Z" fill="#b52426"/>
            </g>
          </g>
          <path id="Trazado_139698" data-name="Trazado 139698" d="M374.046,352.527a7.493,7.493,0,1,0,1.661-10.465h0A7.5,7.5,0,0,0,374.046,352.527Z" fill="#b52426"/>
        </g>
        <g id="Grupo_80961" data-name="Grupo 80961">
          <g id="Beneficios_para_la_empresas_" data-name="Beneficios para la empresas " style="isolation: isolate">
            <text id="Beneficios_3" data-name="Beneficios " transform="translate(392.456 395.078)" fill="#fff" font-size="13" font-family="Roboto-Black, Roboto" font-weight="800" style="isolation: isolate"><tspan x="0" y="0">Beneficios </tspan></text>
            <text id="para_la_" data-name="para la " transform="translate(402.212 410.078)" fill="#fff" font-size="13" font-family="Roboto-Black, Roboto" font-weight="800" style="isolation: isolate"><tspan x="0" y="0">para la </tspan></text>
            <text id="empresas" transform="translate(395.969 425.078)" fill="#fff" font-size="13" font-family="Roboto-Black, Roboto" font-weight="800" style="isolation: isolate"><tspan x="0" y="0">empresas</tspan></text>
          </g>
        </g>
      </g>
      <g id="Grupo_81603" data-name="Grupo 81603">
        <g id="Grupo_80953" data-name="Grupo 80953">
          <g id="Grupo_80952" data-name="Grupo 80952">
            <g id="Grupo_80951" data-name="Grupo 80951">
              <path id="Trazado_139696" data-name="Trazado 139696" d="M336.862,83.5h0a54.839,54.839,0,0,0-54.651,55.022l.1,29.092a15.573,15.573,0,0,0,9.242,14.173l45.712,20.337,45.574-20.647a15.568,15.568,0,0,0,9.144-14.236l-.1-29.09A54.836,54.836,0,0,0,336.863,83.5Z" fill="#97181a"/>
            </g>
          </g>
          <circle id="Elipse_4486" data-name="Elipse 4486" cx="7.492" cy="7.492" r="7.492" transform="translate(330.551 205.138)" fill="#97181a"/>
        </g>
        <g id="Beneficios_personales_" data-name="Beneficios personales " style="isolation: isolate">
          <text id="Beneficios_4" data-name="Beneficios " transform="translate(337.839 135.108)" fill="#fff" font-size="13" font-family="Roboto-Black, Roboto" font-weight="800" style="isolation: isolate"><tspan x="-32.83" y="0">Beneficios </tspan></text>
          <text id="personales" transform="translate(338.246 150.108)" fill="#fff" font-size="13" font-family="Roboto-Black, Roboto" font-weight="800" style="isolation: isolate"><tspan x="-32.411" y="0">personales</tspan></text>
        </g>
      </g>
    </g>
  </g>
</svg>
