<svg xmlns="http://www.w3.org/2000/svg" width="1038.554" height="449.457" viewBox="0 0 1038.554 449.457">
  <g id="Grupo_81598" data-name="Grupo 81598" transform="translate(168.836 -12.607)">
    <g id="Grupo_81596" data-name="Grupo 81596">
      <path id="Trazado_139705" data-name="Trazado 139705" d="M410.663,12.607H208.635a47.746,47.746,0,0,0,0,95.493H466.364a47.746,47.746,0,0,0,.006-95.493Z" fill="#b52426"/>
      <g id="Grupo_80984-2" data-name="Grupo 80984-2">
        <g id="Los_propietarios_accionistas_e_inversionistas_aportan_capital_de_riesgo_e_inversiones_que_permiten_obtener_recursos_financieros_para_la_adquisición_de" data-name="Los propietarios accionistas e inversionistas aportan capital de riesgo e inversiones que permiten obtener recursos financieros para la adquisición de" style="isolation: isolate">
          <text id="Los_propietarios_accionistas_e_inversionistas_" data-name="Los propietarios, accionistas e inversionistas " transform="translate(196.163 38.053)" fill="#fff" font-size="14" font-family="Roboto-Regular, Roboto" style="isolation: isolate"><tspan x="0" y="0">Los propietarios, accionistas e inversionistas </tspan></text>
          <text id="aportan_capital_de_riesgo_e_inversiones_que_" data-name="aportan capital de riesgo e inversiones que " transform="translate(196.163 56.444)" fill="#fff" font-size="14" font-family="Roboto-Regular, Roboto" style="isolation: isolate"><tspan x="0" y="0">aportan capital de riesgo e inversiones que </tspan></text>
          <text id="permiten_obtener_recursos_financieros_para_" data-name="permiten obtener recursos financieros para " transform="translate(196.163 72.444)" fill="#fff" font-size="14" font-family="Roboto-Regular, Roboto" style="isolation: isolate"><tspan x="0" y="0">permiten obtener recursos financieros para </tspan></text>
          <text id="la_adquisición_de_recursos." data-name="la adquisición de recursos." transform="translate(196.163 90.836)" fill="#fff" font-size="14" font-family="Roboto-Regular, Roboto" style="isolation: isolate"><tspan x="0" y="0">la adquisición de recursos.</tspan></text>
        </g>
      </g>
    </g>
    <path id="Trazado_139706" data-name="Trazado 139706" d="M342.341,158.036v-5.349a141.684,141.684,0,0,0-83.666,27.206l3.143,4.328A136.361,136.361,0,0,1,342.341,158.036Z" fill="#97181a"/>
    <path id="Trazado_139707" data-name="Trazado 139707" d="M422.861,184.222,426,179.894a141.685,141.685,0,0,0-83.659-27.207v5.349A136.357,136.357,0,0,1,422.861,184.222Z" fill="#97181a"/>
    <circle id="Elipse_4487" data-name="Elipse 4487" cx="87.796" cy="87.796" r="87.796" transform="translate(254.543 207.211)" fill="#fff"/>
    <path id="Trazado_139708" data-name="Trazado 139708" d="M261.818,405.878a137.249,137.249,0,0,1-49.791-68.487l-5.088,1.653a142.477,142.477,0,0,0,135.4,98.368v-5.349A136.353,136.353,0,0,1,261.818,405.878Z" fill="#d64626"/>
    <path id="Trazado_139709" data-name="Trazado 139709" d="M258.675,179.894A142.346,142.346,0,0,0,206.94,339.045l5.088-1.653a136.948,136.948,0,0,1,49.791-153.17Z" fill="#f7313b"/>
    <path id="Trazado_139710" data-name="Trazado 139710" d="M472.652,337.391a137.121,137.121,0,0,1-130.307,94.672v5.351a142.477,142.477,0,0,0,135.4-98.368Z" fill="#b52426"/>
    <path id="Trazado_139711" data-name="Trazado 139711" d="M477.74,251.056a142.624,142.624,0,0,0-51.735-71.162l-3.143,4.328a137,137,0,0,1,49.791,153.17l5.088,1.653a142.479,142.479,0,0,0,0-87.988Z" fill="#d60d17"/>
    <path id="Trazado_139712" data-name="Trazado 139712" d="M298.863,235.207a73.976,73.976,0,0,0-26.885,82.7l4.072-1.322a69.668,69.668,0,0,1,25.327-77.915Z" fill="#f7313b"/>
    <path id="Trazado_139713" data-name="Trazado 139713" d="M301.377,351.431a69.824,69.824,0,0,1-25.328-34.841l-4.072,1.322A74.04,74.04,0,0,0,342.34,369.03v-4.279A69.371,69.371,0,0,1,301.377,351.431Z" fill="#d64626"/>
    <path id="Trazado_139714" data-name="Trazado 139714" d="M342.34,221.069a73.62,73.62,0,0,0-43.475,14.139l2.515,3.463a69.645,69.645,0,0,1,81.925,0l2.515-3.463A73.621,73.621,0,0,0,342.34,221.069Z" fill="#97181a"/>
    <path id="Trazado_139715" data-name="Trazado 139715" d="M408.632,316.59a69.755,69.755,0,0,1-66.287,48.161v4.279a74.041,74.041,0,0,0,70.361-51.118Z" fill="#b52426"/>
    <path id="Trazado_139716" data-name="Trazado 139716" d="M412.7,272.187a74.113,74.113,0,0,0-26.885-36.98L383.3,238.67a69.7,69.7,0,0,1,25.33,77.919l4.07,1.322a74.059,74.059,0,0,0,0-45.725Z" fill="#d60d17"/>
    <g id="Grupo_80988" data-name="Grupo 80988">
      <g id="Grupo_80987" data-name="Grupo 80987">
        <g id="Grupo_80986" data-name="Grupo 80986">
          <path id="Trazado_139717" data-name="Trazado 139717" d="M341.522,99.522h0a52.454,52.454,0,0,0-52.276,52.632h0l.094,27.827a14.9,14.9,0,0,0,8.839,13.563l43.727,19.45,43.6-19.75a14.892,14.892,0,0,0,8.747-13.618l-.094-27.827A52.454,52.454,0,0,0,341.53,99.522Z" fill="#97181a"/>
        </g>
      </g>
      <circle id="Elipse_4488" data-name="Elipse 4488" cx="7.167" cy="7.167" r="7.167" transform="translate(335.485 215.877)" fill="#97181a"/>
    </g>
    <path id="Trazado_139718" data-name="Trazado 139718" d="M377.093,356.866a7.166,7.166,0,1,0,1.584-10.01A7.166,7.166,0,0,0,377.093,356.866Z" fill="#b52426"/>
    <path id="Trazado_139719" data-name="Trazado 139719" d="M293.225,347.339a7.166,7.166,0,1,0,10.01-1.584,7.167,7.167,0,0,0-10.01,1.584Z" fill="#d64626"/>
    <path id="Trazado_139720" data-name="Trazado 139720" d="M276.364,264.632a7.167,7.167,0,1,0,4.6,9.032h0A7.168,7.168,0,0,0,276.364,264.632Z" fill="#f7313b"/>
    <path id="Trazado_139721" data-name="Trazado 139721" d="M503.839,204.925h330.21a35.667,35.667,0,0,1,35.669,35.666v0h0a35.667,35.667,0,0,1-35.665,35.67H503.839Z" fill="#f7313b"/>
    <g id="Grupo_80989" data-name="Grupo 80989">
      <g id="Los_proveedores_suministran_materias_primas_insumos_básicos_servicios_y_tecnologías." data-name="Los proveedores suministran materias primas insumos básicos servicios y tecnologías." style="isolation: isolate">
        <text id="Los_proveedores_suministran_materias_primas_" data-name="Los proveedores suministran materias primas, " transform="translate(543.964 234.398)" fill="#fff" font-size="14" font-family="Roboto-Regular, Roboto" style="isolation: isolate"><tspan x="0" y="0">Los proveedores suministran materias primas, </tspan></text>
        <text id="insumos_básicos_servicios_y_tecnologías." data-name="insumos básicos, servicios y tecnologías." transform="translate(545.119 251.847)" fill="#fff" font-size="14" font-family="Roboto-Regular, Roboto" style="isolation: isolate"><tspan x="0" y="0">insumos básicos, servicios y tecnologías.</tspan></text>
      </g>
    </g>
    <g id="Grupo_80991" data-name="Grupo 80991">
      <g id="Grupo_80990" data-name="Grupo 80990">
        <g id="STAKEHOLDERS" style="isolation: isolate">
          <text id="STAKEHOLDERS-2" data-name="STAKEHOLDERS" transform="translate(290.538 299.724)" fill="#717272" font-size="12" font-family="Roboto-Bold, Roboto" font-weight="700" style="isolation: isolate"><tspan x="0" y="0">STAKEHOLDERS</tspan></text>
        </g>
      </g>
    </g>
    <g id="Propietarios_accionistas_e_inversionistas._" data-name="Propietarios accionistas e inversionistas. " style="isolation: isolate">
      <text id="Propietarios_" data-name="Propietarios, " transform="translate(304.048 144.058)" fill="#fff" font-size="13" font-family="Roboto-Bold, Roboto" font-weight="700" style="isolation: isolate"><tspan x="0" y="0">Propietarios, </tspan></text>
      <text id="accionistas_e_" data-name="accionistas e " transform="translate(303.353 159.058)" fill="#fff" font-size="13" font-family="Roboto-Bold, Roboto" font-weight="700" style="isolation: isolate"><tspan x="0" y="0">accionistas e </tspan></text>
      <text id="inversionistas." transform="translate(300.291 174.058)" fill="#fff" font-size="13" font-family="Roboto-Bold, Roboto" font-weight="700" style="isolation: isolate"><tspan x="0" y="0">inversionistas.</tspan></text>
    </g>
    <g id="Grupo_80994" data-name="Grupo 80994">
      <g id="Grupo_80993" data-name="Grupo 80993">
        <g id="Grupo_80992" data-name="Grupo 80992">
          <path id="Trazado_139722" data-name="Trazado 139722" d="M526.982,233.991h0a52.455,52.455,0,0,0-66.211-33.454h0l-26.439,8.684a14.893,14.893,0,0,0-10.161,12.6l-4.99,47.6,32.256,35.358a14.894,14.894,0,0,0,15.653,4.111l26.439-8.688A52.457,52.457,0,0,0,526.982,233.991Z" fill="#d60d17"/>
        </g>
      </g>
      <path id="Trazado_139723" data-name="Trazado 139723" d="M412.069,280.046a7.167,7.167,0,1,0-9.031-4.6h0a7.165,7.165,0,0,0,9.03,4.6Z" fill="#d60d17"/>
    </g>
    <g id="Grupo_80995" data-name="Grupo 80995">
      <g id="Proveedores_" data-name="Proveedores " style="isolation: isolate">
        <text id="Proveedores" transform="translate(439.449 254.748)" fill="#fff" font-size="13" font-family="Roboto-Black, Roboto" font-weight="800" style="isolation: isolate"><tspan x="0" y="0">Proveedores</tspan></text>
      </g>
    </g>
    <g id="Grupo_81597" data-name="Grupo 81597">
      <path id="Trazado_139726" data-name="Trazado 139726" d="M179.723,276.833H-132.883a35.953,35.953,0,0,1-35.953-35.953v0h0a35.953,35.953,0,0,1,35.953-35.952H179.723Z" fill="#d60d17"/>
      <g id="Grupo_81001" data-name="Grupo 81001">
        <g id="Los_clientes_y_los_consumidores_contribuyen_cuando_adquieren_los_bienes_o_servicios_que_se_ofrecen_y_así_incrementan_la_facturación._" data-name="Los clientes y los consumidores contribuyen cuando adquieren los bienes o servicios que se ofrecen y así incrementan la facturación. " style="isolation: isolate">
          <text id="Los_clientes_y_los_consumidores_contribuyen_" data-name="Los clientes y los consumidores contribuyen " transform="translate(-135.347 227.557)" fill="#fff" font-size="14" font-family="Roboto-Regular, Roboto" style="isolation: isolate"><tspan x="0" y="0">Los clientes y los consumidores contribuyen </tspan></text>
          <text id="cuando_adquieren_los_bienes_o_servicios_que_" data-name="cuando adquieren los bienes o servicios que " transform="translate(-135.347 244.049)" fill="#fff" font-size="14" font-family="Roboto-Regular, Roboto" style="isolation: isolate"><tspan x="0" y="0">cuando adquieren los bienes o servicios que </tspan></text>
          <text id="se_ofrecen_y_así_incrementan_la_facturación." data-name="se ofrecen y así incrementan la facturación." transform="translate(-135.347 259.85)" fill="#fff" font-size="14" font-family="Roboto-Regular, Roboto" style="isolation: isolate"><tspan x="0" y="0">se ofrecen y así incrementan la facturación.</tspan></text>
        </g>
      </g>
    </g>
    <g id="Grupo_81008" data-name="Grupo 81008">
      <g id="Grupo_81007" data-name="Grupo 81007">
        <path id="Trazado_139729" data-name="Trazado 139729" d="M156.329,234.351h0a52.456,52.456,0,0,0,33.9,65.984l26.5,8.51a14.891,14.891,0,0,0,15.625-4.219l32.016-35.575-5.314-47.564a14.9,14.9,0,0,0-10.247-12.527l-26.5-8.51A52.457,52.457,0,0,0,156.329,234.351Z" fill="#f7313b"/>
      </g>
    </g>
    <g id="Grupo_81009" data-name="Grupo 81009">
      <g id="Clientes_o_consumidores_" data-name="Clientes o consumidores " style="isolation: isolate">
        <text id="Clientes_o" data-name="Clientes o" transform="translate(178.942 247.914)" fill="#fff" font-size="13" font-family="Roboto-Black, Roboto" font-weight="800" style="isolation: isolate"><tspan x="0" y="0">Clientes o</tspan></text>
        <text id="consumidores" transform="translate(166.532 262.914)" fill="#fff" font-size="13" font-family="Roboto-Black, Roboto" font-weight="800" style="isolation: isolate"><tspan x="0" y="0">consumidores</tspan></text>
      </g>
    </g>
    <path id="Trazado_139721-2" data-name="Trazado 139721" d="M460.969,377.3H759.338a35.666,35.666,0,0,1,35.669,35.666h0a35.668,35.668,0,0,1-35.665,35.671H460.969Z" fill="#d64626"/>
    <path id="Trazado_139721-3" data-name="Trazado 139721" d="M223.486,448.639H-74.884a35.669,35.669,0,0,1-35.669-35.667h0A35.667,35.667,0,0,1-74.888,377.3H223.486Z" fill="#b52426"/>
    <g id="Grupo_81003" data-name="Grupo 81003">
      <g id="Grupo_81002" data-name="Grupo 81002">
        <g id="Los_colaboradores_ofrecen_su_trabajo_y_garantizan_las_operaciones_del_negocio._" data-name="Los colaboradores ofrecen su trabajo y garantizan las operaciones del negocio. " style="isolation: isolate">
          <text id="Los_colaboradores_ofrecen_su_trabajo_y_" data-name="Los colaboradores ofrecen su trabajo y " transform="translate(-51.157 409.002)" fill="#fff" font-size="14" font-family="Roboto-Regular, Roboto" style="isolation: isolate"><tspan x="0" y="0">Los colaboradores ofrecen su trabajo y </tspan></text>
          <text id="garantizan_las_operaciones_del_negocio." data-name="garantizan las operaciones del negocio." transform="translate(-51.157 427.756)" fill="#fff" font-size="14" font-family="Roboto-Regular, Roboto" style="isolation: isolate"><tspan x="0" y="0">garantizan las operaciones del negocio.</tspan></text>
        </g>
      </g>
    </g>
    <g id="Grupo_80997" data-name="Grupo 80997">
      <g id="Grupo_80996" data-name="Grupo 80996">
        <g id="Los_administradores_contribuyen_con_sus_competencias_y_toman_decisiones_y_acciones_que_dinamizan_la_organización." data-name="Los administradores contribuyen con sus competencias y toman decisiones y acciones que dinamizan la organización." style="isolation: isolate">
          <text id="Los_administradores_contribuyen_con_sus_" data-name="Los administradores contribuyen con sus " transform="translate(488.709 399.645)" fill="#fff" font-size="14" font-family="Roboto-Regular, Roboto" style="isolation: isolate"><tspan x="0" y="0">Los administradores contribuyen con sus </tspan></text>
          <text id="competencias_y_toman_decisiones_y_acciones_" data-name="competencias y toman decisiones y acciones " transform="translate(488.709 415.397)" fill="#fff" font-size="14" font-family="Roboto-Regular, Roboto" style="isolation: isolate"><tspan x="0" y="0">competencias y toman decisiones y acciones </tspan></text>
          <text id="que_dinamizan_la_organización." data-name="que dinamizan la organización." transform="translate(488.709 434.478)" fill="#fff" font-size="14" font-family="Roboto-Regular, Roboto" style="isolation: isolate"><tspan x="0" y="0">que dinamizan la organización.</tspan></text>
        </g>
      </g>
    </g>
    <g id="Grupo_80999" data-name="Grupo 80999">
      <g id="Grupo_80998" data-name="Grupo 80998">
        <path id="Trazado_139725" data-name="Trazado 139725" d="M456.407,451.92h0a52.458,52.458,0,0,0,11.358-73.309l-16.434-22.457a14.9,14.9,0,0,0-15.12-5.774L389.4,360.343l-23.659,41.6a14.891,14.891,0,0,0,.926,16.158l16.434,22.46a52.453,52.453,0,0,0,73.3,11.361Z" fill="#b52426"/>
      </g>
    </g>
    <g id="Grupo_81000" data-name="Grupo 81000">
      <g id="Administradores_gerentes_o_jefes._" data-name="Administradores gerentes o jefes. " style="isolation: isolate">
        <text id="Administradores_" data-name="Administradores," transform="translate(378.782 404.767)" fill="#fff" font-size="13" font-family="Roboto-Bold, Roboto" font-weight="700" letter-spacing="-0.052em" style="isolation: isolate"><tspan x="0" y="0">Administradores,</tspan></text>
        <text id="gerentes_o_jefes." data-name="gerentes o jefes." transform="translate(381.355 419.767)" fill="#fff" font-size="13" font-family="Roboto-Bold, Roboto" font-weight="700" letter-spacing="-0.052em" style="isolation: isolate"><tspan x="0" y="0">gerentes o jefes.</tspan></text>
      </g>
    </g>
    <g id="Grupo_81005" data-name="Grupo 81005">
      <g id="Grupo_81004" data-name="Grupo 81004">
        <path id="Trazado_139728" data-name="Trazado 139728" d="M227.332,452.145h0a52.454,52.454,0,0,0,73.23-11.85h0l16.28-22.57a14.891,14.891,0,0,0,.819-16.164l-23.943-41.445-46.878-9.646a14.892,14.892,0,0,0-15.081,5.876l-16.281,22.57a52.456,52.456,0,0,0,11.852,73.23Z" fill="#d64626"/>
      </g>
    </g>
    <g id="Grupo_81006" data-name="Grupo 81006">
      <g id="Colaboradores_o_empleados._" data-name="Colaboradores o empleados. " style="isolation: isolate">
        <text id="Colaboradores_" data-name="Colaboradores " transform="translate(217.572 407.893)" fill="#fff" font-size="13" font-family="Roboto-Bold, Roboto" font-weight="700" style="isolation: isolate"><tspan x="0" y="0">Colaboradores </tspan></text>
        <text id="o_empleados." data-name="o empleados." transform="translate(223.069 422.893)" fill="#fff" font-size="13" font-family="Roboto-Bold, Roboto" font-weight="700" style="isolation: isolate"><tspan x="0" y="0">o empleados.</tspan></text>
      </g>
    </g>
  </g>
</svg>
